# xmcd CD database file
#
# Track frame offsets:
#	182
#	12652
#	28030
#	42102
#	59477
#	75970
#	89612
#	103965
#	115585
#	130700
#	146832
#	162662
#	174757
#	200887
#
# Disc length: 2877 seconds
#
# Revision: 2
# Processed by: cddbd v1.4PL0 Copyright (c) Steve Scherf et al.
# Submitted via: CDex 1.50Beta7
#
DISCID=c10b3b0e
DTITLE=Louis  Armstrong - The Best Of A Wonderful World (Vol 2)
DYEAR=1900
DGENRE=Jazz
TTITLE0=Cabaret
TTITLE1=La Vie En Rose
TTITLE2=There Must Be a Way
TTITLE3=Lazy River
TTITLE4=Go Down Moses
TTITLE5=Everybody's Talkin'
TTITLE6=Indian Love Call
TTITLE7=Hellzapoppin' (From Hellzapoppin '67)
TTITLE8=Mood Indigo
TTITLE9=Star Dust
TTITLE10=Hello Brother
TTITLE11=La Cucaracha
TTITLE12=On The Sunny Side Of The Street
TTITLE13=What A Wondrful World (versão "Pops Says..." 1970)
EXTD=
EXTT0=
EXTT1=
EXTT2=
EXTT3=
EXTT4=
EXTT5=
EXTT6=
EXTT7=
EXTT8=
EXTT9=
EXTT10=
EXTT11=
EXTT12=
EXTT13=
PLAYORDER=
